<svg width="20" height="20" viewBox="0 0 20 20" fill="none" xmlns="http://www.w3.org/2000/svg">
<path d="M16.7188 11.4531V5.625C16.719 5.56993 16.7046 5.51579 16.6772 5.46804C16.6498 5.4203 16.6102 5.38066 16.5625 5.35312L8.98438 0.978124C8.93687 0.950696 8.88298 0.936256 8.82813 0.936256C8.77327 0.936256 8.71938 0.950696 8.67188 0.978124L1.09375 5.35312C1.04606 5.38066 1.0065 5.4203 0.979058 5.46804C0.95162 5.51579 0.937284 5.56993 0.937502 5.625V14.375C0.937284 14.4301 0.95162 14.4842 0.979058 14.532C1.0065 14.5797 1.04606 14.6193 1.09375 14.6469L8.67188 19.0219C8.71938 19.0493 8.77327 19.0637 8.82813 19.0637C8.88298 19.0637 8.93687 19.0493 8.98438 19.0219L11.8313 17.3781C12.1861 17.8753 12.6506 18.2841 13.1888 18.573C13.7269 18.8619 14.3244 19.0231 14.9348 19.0441C15.5453 19.0651 16.1524 18.9454 16.7091 18.6942C17.2659 18.443 17.7574 18.067 18.1456 17.5955C18.5338 17.1239 18.8082 16.5693 18.9478 15.9746C19.0873 15.38 19.0881 14.7612 18.9502 14.1661C18.8122 13.5711 18.5392 13.0158 18.1523 12.5432C17.7653 12.0706 17.2748 11.6933 16.7188 11.4406V11.4531ZM8.82813 1.60937L15.7813 5.625L12.2938 7.6375L5.8375 3.3375L8.82813 1.60937ZM8.82813 9.64062L1.875 5.625L5.23438 3.68437L11.6875 7.9875L8.82813 9.64062ZM1.5625 6.16562L8.51563 10.1812V18.2094L1.5625 14.1937V6.16562ZM9.14063 18.2094V10.1812L11.9531 8.54687V10.9812C11.9531 11.0641 11.986 11.1436 12.0447 11.2022C12.1033 11.2608 12.1827 11.2937 12.2656 11.2937C12.3485 11.2937 12.428 11.2608 12.4866 11.2022C12.5452 11.1436 12.5781 11.0641 12.5781 10.9812V8.1875L16.0781 6.16562V11.2312C15.7471 11.1408 15.4056 11.0946 15.0625 11.0937C14.3862 11.0955 13.7216 11.2696 13.1313 11.5996C12.541 11.9296 12.0446 12.4047 11.689 12.9799C11.3334 13.5551 11.1303 14.2114 11.0988 14.887C11.0674 15.5625 11.2087 16.2349 11.5094 16.8406L9.14063 18.2094ZM15.0781 18.4375C14.4137 18.4375 13.7642 18.2405 13.2118 17.8713C12.6593 17.5022 12.2287 16.9775 11.9745 16.3637C11.7202 15.7499 11.6537 15.0744 11.7833 14.4227C11.9129 13.7711 12.2329 13.1725 12.7027 12.7027C13.1725 12.2329 13.7711 11.9129 14.4227 11.7833C15.0744 11.6537 15.7499 11.7202 16.3637 11.9745C16.9775 12.2287 17.5022 12.6593 17.8713 13.2118C18.2405 13.7642 18.4375 14.4137 18.4375 15.0781C18.4367 15.9688 18.0825 16.8228 17.4526 17.4526C16.8228 18.0825 15.9688 18.4367 15.0781 18.4375Z" fill="#00AB38"/>
<path d="M16.5627 13.4562L14.6252 16.0125L13.6095 14.8187C13.5561 14.7545 13.4793 14.7142 13.3961 14.7065C13.3128 14.6989 13.23 14.7247 13.1658 14.7781C13.1015 14.8316 13.0612 14.9084 13.0536 14.9916C13.0459 15.0748 13.0717 15.1576 13.1252 15.2219L14.3752 16.7156C14.4045 16.7499 14.4409 16.7775 14.4819 16.7963C14.5229 16.8152 14.5675 16.825 14.6126 16.825C14.6596 16.8236 14.7056 16.8116 14.7472 16.79C14.7889 16.7683 14.8251 16.7376 14.8533 16.7L17.0252 13.8344C17.0659 13.8073 17.0996 13.771 17.1238 13.7285C17.1479 13.686 17.1618 13.6384 17.1642 13.5895C17.1666 13.5407 17.1575 13.492 17.1376 13.4473C17.1178 13.4026 17.0877 13.3632 17.0498 13.3323C17.012 13.3013 16.9674 13.2797 16.9196 13.2691C16.8719 13.2585 16.8224 13.2593 16.775 13.2714C16.7276 13.2834 16.6837 13.3064 16.6468 13.3385C16.6099 13.3707 16.5811 13.411 16.5627 13.4562Z" fill="#00AB38"/>
</svg>
