<svg width="18" height="17" viewBox="0 0 18 17" fill="none" xmlns="http://www.w3.org/2000/svg">
<path d="M15.677 16.607L9.962 10.891C7.4196 12.6985 3.91642 12.2564 1.90285 9.8739C-0.11071 7.4915 0.0371398 3.96361 2.24298 1.75802C4.44824 -0.448534 7.9765 -0.597024 10.3594 1.41644C12.7422 3.42989 13.1846 6.93347 11.377 9.476L17.092 15.192L15.678 16.606L15.677 16.607ZM6.48498 2.00001C4.58868 1.99958 2.95267 3.3307 2.56745 5.18745C2.18224 7.0442 3.15369 8.9163 4.89366 9.6703C6.63362 10.4242 8.6639 9.8529 9.7552 8.3021C10.8466 6.75129 10.699 4.64734 9.402 3.26402L10.007 3.86402L9.325 3.18402L9.313 3.17202C8.5648 2.4192 7.5464 1.99715 6.48498 2.00001Z" fill="white"/>
</svg>
