<svg width="26" height="22" viewBox="0 0 26 22" fill="none" xmlns="http://www.w3.org/2000/svg">
<path d="M25.768 3.0641C24.808 3.4801 23.816 3.7681 22.76 3.8961C23.848 3.2561 24.68 2.2321 25.064 0.984098C24.04 1.5921 22.92 2.0081 21.736 2.2641C20.776 1.2401 19.4 0.600098 17.896 0.600098C14.984 0.600098 12.648 2.9681 12.648 5.8481C12.648 6.2641 12.68 6.6481 12.776 7.0321C8.424 6.8401 4.584 4.7281 1.992 1.5601C0.135999 4.8881 2.216 7.6401 3.592 8.5681C2.76 8.5681 1.928 8.3121 1.224 7.9281C1.224 10.5201 3.048 12.6641 5.416 13.1441C4.904 13.3041 3.752 13.4001 3.048 13.2401C3.72 15.3201 5.672 16.8561 7.944 16.8881C6.152 18.2961 3.528 19.4161 0.167999 19.0641C2.504 20.5681 5.256 21.4321 8.232 21.4321C17.896 21.4321 23.144 13.4321 23.144 6.5201C23.144 6.2961 23.144 6.0721 23.112 5.8481C24.2 5.0481 25.096 4.1201 25.768 3.0641V3.0641Z" fill="#00AB38"/>
</svg>
